<svg width="128" height="128" viewBox="0 0 128 128" fill="none" xmlns="http://www.w3.org/2000/svg" role="img" aria-labelledby="title desc">
  <title id="title">Cooler glyph</title>
  <desc id="desc">Abstract CPU cooler glyph with fan and radiator fins.</desc>
  <defs>
    <linearGradient id="plate" x1="20" y1="18" x2="110" y2="108" gradientUnits="userSpaceOnUse">
      <stop stop-color="#F9FCFF"/>
      <stop offset="1" stop-color="#E4EDF5"/>
    </linearGradient>
  </defs>
  <rect x="22" y="20" width="84" height="84" rx="14" fill="url(#plate)" stroke="#557488" stroke-width="3"/>
  <g stroke="#9CB5C8" stroke-width="2" opacity="0.52">
    <path d="M34 20V104"/><path d="M44 20V104"/><path d="M54 20V104"/><path d="M74 20V104"/><path d="M84 20V104"/><path d="M94 20V104"/>
  </g>
  <circle cx="64" cy="62" r="31" fill="#FFFFFF" stroke="#557488" stroke-width="3"/>
  <circle cx="64" cy="62" r="8" fill="#557488"/>
  <path d="M64 33C73 46 73 53 64 62C55 53 55 46 64 33Z" fill="#19A7B8" opacity="0.38"/>
  <path d="M93 62C80 71 73 71 64 62C73 53 80 53 93 62Z" fill="#19A7B8" opacity="0.38"/>
  <path d="M64 91C55 78 55 71 64 62C73 71 73 78 64 91Z" fill="#19A7B8" opacity="0.38"/>
  <path d="M35 62C48 53 55 53 64 62C55 71 48 71 35 62Z" fill="#19A7B8" opacity="0.38"/>
  <path d="M42 110H86" stroke="#D79C39" stroke-width="5" stroke-linecap="round"/>
</svg>
