<svg width="128" height="128" viewBox="0 0 128 128" fill="none" xmlns="http://www.w3.org/2000/svg" role="img" aria-labelledby="title desc">
  <title id="title">CPU glyph</title>
  <desc id="desc">Abstract CPU chip glyph for a slot board node.</desc>
  <defs>
    <linearGradient id="chip" x1="26" y1="22" x2="102" y2="106" gradientUnits="userSpaceOnUse">
      <stop stop-color="#F8FBFF"/>
      <stop offset="1" stop-color="#E6EEF6"/>
    </linearGradient>
    <linearGradient id="core" x1="48" y1="45" x2="83" y2="83" gradientUnits="userSpaceOnUse">
      <stop stop-color="#FFFFFF"/>
      <stop offset="1" stop-color="#DDE8F2"/>
    </linearGradient>
  </defs>
  <g stroke="#557488" stroke-width="3" stroke-linecap="round">
    <path d="M30 16V6M46 16V6M62 16V6M78 16V6M94 16V6" opacity="0.55"/>
    <path d="M30 122V112M46 122V112M62 122V112M78 122V112M94 122V112" opacity="0.55"/>
    <path d="M16 30H6M16 46H6M16 62H6M16 78H6M16 94H6" opacity="0.55"/>
    <path d="M122 30H112M122 46H112M122 62H112M122 78H112M122 94H112" opacity="0.55"/>
  </g>
  <rect x="20" y="20" width="88" height="88" rx="16" fill="url(#chip)" stroke="#557488" stroke-width="3"/>
  <rect x="34" y="34" width="60" height="60" rx="10" stroke="#9CB5C8" stroke-width="2" stroke-dasharray="4 6"/>
  <rect x="46" y="46" width="36" height="36" rx="7" fill="url(#core)" stroke="#557488" stroke-width="2.5"/>
  <circle cx="36" cy="36" r="3" fill="#19A7B8" opacity="0.75"/>
  <circle cx="92" cy="36" r="3" fill="#19A7B8" opacity="0.42"/>
  <circle cx="36" cy="92" r="3" fill="#19A7B8" opacity="0.42"/>
  <circle cx="92" cy="92" r="3" fill="#19A7B8" opacity="0.75"/>
</svg>
