<svg width="180" height="112" viewBox="0 0 180 112" fill="none" xmlns="http://www.w3.org/2000/svg" role="img" aria-labelledby="title desc">
  <title id="title">GPU glyph</title>
  <desc id="desc">Abstract graphics card glyph with dual fans.</desc>
  <defs>
    <linearGradient id="body" x1="22" y1="22" x2="152" y2="92" gradientUnits="userSpaceOnUse">
      <stop stop-color="#F9FCFF"/>
      <stop offset="1" stop-color="#E3ECF5"/>
    </linearGradient>
    <radialGradient id="fan" cx="0" cy="0" r="1" gradientUnits="userSpaceOnUse" gradientTransform="translate(67 56) rotate(90) scale(24)">
      <stop stop-color="#EEF5FA"/>
      <stop offset="1" stop-color="#AFC2D5"/>
    </radialGradient>
  </defs>
  <path d="M18 28C18 22.477 22.477 18 28 18H150C155.523 18 160 22.477 160 28V84C160 89.523 155.523 94 150 94H28C22.477 94 18 89.523 18 84V28Z" fill="url(#body)" stroke="#557488" stroke-width="3"/>
  <path d="M160 36H171C174.314 36 177 38.686 177 42V70C177 73.314 174.314 76 171 76H160" stroke="#557488" stroke-width="3"/>
  <path d="M40 99H128" stroke="#D79C39" stroke-width="6" stroke-linecap="round"/>
  <g>
    <circle cx="67" cy="56" r="25" fill="url(#fan)" stroke="#557488" stroke-width="3"/>
    <circle cx="67" cy="56" r="7" fill="#557488"/>
    <path d="M67 33C74 43 74 48 67 56C60 48 60 43 67 33Z" fill="#6F8DA1" opacity="0.45"/>
    <path d="M90 56C80 63 75 63 67 56C75 49 80 49 90 56Z" fill="#6F8DA1" opacity="0.45"/>
    <path d="M67 79C60 69 60 64 67 56C74 64 74 69 67 79Z" fill="#6F8DA1" opacity="0.45"/>
    <path d="M44 56C54 49 59 49 67 56C59 63 54 63 44 56Z" fill="#6F8DA1" opacity="0.45"/>
  </g>
  <g>
    <circle cx="118" cy="56" r="25" fill="url(#fan)" stroke="#557488" stroke-width="3"/>
    <circle cx="118" cy="56" r="7" fill="#557488"/>
    <path d="M118 33C125 43 125 48 118 56C111 48 111 43 118 33Z" fill="#19A7B8" opacity="0.36"/>
    <path d="M141 56C131 63 126 63 118 56C126 49 131 49 141 56Z" fill="#19A7B8" opacity="0.36"/>
    <path d="M118 79C111 69 111 64 118 56C125 64 125 69 118 79Z" fill="#19A7B8" opacity="0.36"/>
    <path d="M95 56C105 49 110 49 118 56C110 63 105 63 95 56Z" fill="#19A7B8" opacity="0.36"/>
  </g>
  <rect x="28" y="28" width="18" height="10" rx="3" fill="#D6E2EC"/>
  <rect x="139" y="28" width="10" height="56" rx="4" fill="#D6E2EC"/>
</svg>
