<svg width="128" height="128" viewBox="0 0 128 128" fill="none" xmlns="http://www.w3.org/2000/svg" role="img" aria-labelledby="title desc">
  <title id="title">Power supply glyph</title>
  <desc id="desc">Abstract PSU glyph with fan grill and connector matrix.</desc>
  <defs>
    <linearGradient id="box" x1="18" y1="20" x2="108" y2="110" gradientUnits="userSpaceOnUse">
      <stop stop-color="#F8FBFF"/>
      <stop offset="1" stop-color="#E4EDF5"/>
    </linearGradient>
  </defs>
  <rect x="18" y="22" width="92" height="84" rx="14" fill="url(#box)" stroke="#557488" stroke-width="3"/>
  <circle cx="51" cy="64" r="27" fill="#FFFFFF" stroke="#557488" stroke-width="3"/>
  <circle cx="51" cy="64" r="8" fill="#557488"/>
  <g stroke="#9CB5C8" stroke-width="2" stroke-linecap="round" opacity="0.65">
    <path d="M51 39V89"/>
    <path d="M26 64H76"/>
    <path d="M33 46L69 82"/>
    <path d="M69 46L33 82"/>
  </g>
  <g fill="#6F8DA1" opacity="0.54">
    <circle cx="87" cy="45" r="3"/><circle cx="99" cy="45" r="3"/>
    <circle cx="87" cy="57" r="3"/><circle cx="99" cy="57" r="3"/>
    <circle cx="87" cy="69" r="3"/><circle cx="99" cy="69" r="3"/>
    <circle cx="87" cy="81" r="3"/><circle cx="99" cy="81" r="3"/>
  </g>
  <rect x="84" y="92" width="18" height="5" rx="2.5" fill="#19A7B8" opacity="0.62"/>
</svg>
