<svg width="128" height="128" viewBox="0 0 128 128" fill="none" xmlns="http://www.w3.org/2000/svg" role="img" aria-labelledby="title desc">
  <title id="title">RAM glyph</title>
  <desc id="desc">Abstract memory module glyph for a slot board node.</desc>
  <defs>
    <linearGradient id="body" x1="32" y1="18" x2="96" y2="110" gradientUnits="userSpaceOnUse">
      <stop stop-color="#F8FBFF"/>
      <stop offset="1" stop-color="#E7EFF7"/>
    </linearGradient>
  </defs>
  <rect x="35" y="14" width="58" height="100" rx="12" fill="url(#body)" stroke="#557488" stroke-width="3"/>
  <rect x="45" y="25" width="14" height="76" rx="4" fill="#2B3A4B" opacity="0.86"/>
  <rect x="69" y="25" width="14" height="76" rx="4" fill="#2B3A4B" opacity="0.86"/>
  <g fill="#6F8DA1" opacity="0.45">
    <rect x="48" y="32" width="8" height="10" rx="2"/>
    <rect x="48" y="48" width="8" height="10" rx="2"/>
    <rect x="48" y="64" width="8" height="10" rx="2"/>
    <rect x="48" y="80" width="8" height="10" rx="2"/>
    <rect x="72" y="32" width="8" height="10" rx="2"/>
    <rect x="72" y="48" width="8" height="10" rx="2"/>
    <rect x="72" y="64" width="8" height="10" rx="2"/>
    <rect x="72" y="80" width="8" height="10" rx="2"/>
  </g>
  <path d="M43 108H85" stroke="#D79C39" stroke-width="6" stroke-linecap="round"/>
  <g stroke="#9CB5C8" stroke-width="2" stroke-linecap="round" opacity="0.75">
    <path d="M27 24H19M27 46H19M27 68H19M27 90H19"/>
    <path d="M109 24H101M109 46H101M109 68H101M109 90H101"/>
  </g>
  <path d="M62 108V114" stroke="#557488" stroke-width="3" stroke-linecap="round"/>
</svg>
